<svg xmlns="http://www.w3.org/2000/svg" viewBox="0 0 19.04 48"><defs><style>.cls-1{fill:#fdfdfd;}.cls-2{fill:#795548;}.cls-3{fill:#ffdbcf;}.cls-4{fill:#0d47a1;}.cls-5{fill:#9e9e9e;}.cls-6{fill:#f2c1b1;}.cls-7{fill:#424242;}.cls-8{fill:#a87a6a;}.cls-9{fill:#f1c1b1;}.cls-10{fill:#f0c0b0;}.cls-11{fill:#fff;}.cls-12{fill:#7a5548;}.cls-13{fill:#02bcd4;}.cls-14{fill:#feffff;}.cls-15{fill:#7b5649;}.cls-16{fill:#feeee8;}.cls-17{fill:#212121;}.cls-18{fill:#1979e0;}.cls-19{fill:#1565c0;}.cls-20{fill:#f9fafa;}.cls-21{fill:#ff8f00;}.cls-22{fill:#fc8e00;}.cls-23{fill:#ffa000;}.cls-24{fill:#222121;}.cls-25{fill:#242221;}.cls-26{fill:#fef7e0;}</style></defs><title>Asset 2</title><g id="Layer_2" data-name="Layer 2"><g id="Layer_1-2" data-name="Layer 1"><polygon class="cls-1" points="3.92 45.74 3.81 47.75 8.38 47.8 8.38 46.21 3.92 45.74"/><polygon class="cls-1" points="11.53 45.74 11.43 47.75 15.99 47.8 15.99 46.21 11.53 45.74"/><path class="cls-2" d="M2.29,13.72H.91c-.11,0-.15,0-.15-.15s0-.29,0-.44S.73,13,.6,13H.39C0,13,0,13,0,12.56V4.92c0-.37,0-.32.33-.33s.43,0,.43-.43V3.23c0-.11,0-.17.15-.16s.27,0,.41,0,.22,0,.21-.19,0-.25,0-.38.06-.19.2-.19.42.09.53-.05,0-.34,0-.52.05-.2.2-.2.41.09.53,0,0-.34,0-.51,0-.2.22-.2H4.35c.21,0,.21,0,.22-.21S4.5.18,4.6.07,5,0,5.16,0h8.29c.25,0,.25,0,.26.25s-.08.37,0,.48.3,0,.46,0H15c.14,0,.22,0,.2.2s0,.25,0,.38.06.19.2.19c.37,0,.74,0,1.11,0,.21,0,.21,0,.21.21s0,.28,0,.41,0,.14.14.14h.47c.11,0,.16,0,.15.15v.32c0,.32,0,.29.28.29.11,0,.22,0,.32,0s.17.05.17.17c0,.39,0,.78,0,1.18,0,.14.05.19.19.18h.44a.12.12,0,0,1,.14.14,1.08,1.08,0,0,0,0,.18V8.86A.75.75,0,0,0,19,9q0,.16-.15.15h-.35c-.27,0-.27,0-.27.25,0,.43,0,.86,0,1.29,0,.92,0,1.84,0,2.75,0,.28,0,.27-.26.28s-.37-.07-.47,0,0,.3,0,.46,0,.25-.25.25h-.5a.58.58,0,0,1-.09-.44V10.54c0-.58,0-.52-.48-.53l-.11,0A.19.19,0,0,1,16,9.94a.64.64,0,0,1-.07-.43c0-.2-.08-.28-.28-.27a.78.78,0,0,1-.37,0,.11.11,0,0,1-.07-.06.82.82,0,0,1,0-.38c0-.19-.07-.28-.27-.28h-.79c-.22,0-.3.1-.29.3a.82.82,0,0,1,0,.35.16.16,0,0,1-.07.07,4.25,4.25,0,0,1-1,.05c-.38,0-.38,0-.4.38a1.09,1.09,0,0,1,0,.26.27.27,0,0,1-.07.08,5.58,5.58,0,0,1-1.08,0h-.32c-.22,0-.47-.06-.66,0s0,.41-.15.59a.19.19,0,0,1-.07.08,4.06,4.06,0,0,1-1,0H8c-.22,0-.33.07-.32.31a.67.67,0,0,1,0,.34.18.18,0,0,1-.08.07,1.21,1.21,0,0,1-.46,0H2.93c-.53,0-.53,0-.54.52,0,0,0,.1,0,.15,0,.39,0,.79,0,1.19A.38.38,0,0,1,2.29,13.72Z"/><path class="cls-3" d="M2.29,13.72V12.21a.66.66,0,0,1,.47-.1H7c.46,0,.46,0,.53-.46a.42.42,0,0,1,.08-.21h0A.65.65,0,0,1,8,11.35H9.49c.23,0,.34-.08.33-.32a.5.5,0,0,1,.08-.36h0a.53.53,0,0,1,.36-.09h1.49c.4,0,.45.06.47.45,0,.1,0,.2.08.26a.8.8,0,0,0,.43,0H14.1a.65.65,0,0,1,.34.07c.15.11.12.27.12.43s.11.28.31.27.29,0,.29-.26-.05-.34-.29-.33-.3,0-.41-.11a.41.41,0,0,1-.07-.3c0-.32,0-.34-.37-.34H12.57a.53.53,0,0,1-.39-.08.87.87,0,0,1,0-.77h0a.88.88,0,0,1,.53-.09h.38c.47,0,.47,0,.53-.46a.45.45,0,0,1,.08-.22h0a2.12,2.12,0,0,1,1-.09.74.74,0,0,1,.56.09h0a.52.52,0,0,1,.08.42c0,.18.08.26.26.26s.3,0,.42.08h0a.52.52,0,0,1,.09.38c0,2.28,0,4.55,0,6.82,0,.43,0,.48-.46.5-.23,0-.29.11-.3.32,0,.38-.06.42-.43.44s-.32.1-.33.33-.06.41-.44.43-.33.11-.32.34,0,.49,0,.73a.5.5,0,0,1-.09.36H12.49c-.29,0-.3,0-.3.31s0,.8,0,1.2c-.18,0-.14-.16-.15-.26,0-.26,0-.52,0-.79s0-.36-.37-.36H7.19a.48.48,0,0,1-.33-.1c-.44,0-.87,0-1.3,0-.21,0-.22,0-.22-.21v-.55a.73.73,0,0,1,.5-.09h5.65a2.81,2.81,0,0,1,.29,0c.22,0,.33-.08.32-.31a1,1,0,0,1,0-.29.24.24,0,0,1,.06-.09.68.68,0,0,1,.42-.06c.19,0,.26-.09.26-.27s0-.29,0-.44c0-.64,0-.64-.66-.64H12c-.41,0-.42,0-.45.41a.33.33,0,0,1-.37.35H6.55c-.47,0-.51,0-.54-.48,0-.2-.09-.28-.29-.28H5c-.32,0-.34,0-.35.36a2.17,2.17,0,0,1,0,.26v.12c0,.58,0,.58.58.62l.09,0a.16.16,0,0,1,.06.08,1,1,0,0,1,0,.71H4c-.14,0-.22,0-.2-.2v-.14c0-.46,0-.42-.41-.42H3.24c-.14,0-.19-.06-.19-.19s0-.28,0-.41a.14.14,0,0,0-.16-.16H2.45a.14.14,0,0,1-.16-.16V13.72Z"/><path class="cls-4" d="M14.48,35.81c0,.11,0,.22,0,.32v5.45c0,.1,0,.21,0,.32a.48.48,0,0,1-.38.1H10.3a.53.53,0,0,1-.39-.09c0-.11,0-.22,0-.32V35.94c0-.07,0-.12-.1-.12H9.24c-.07,0-.1,0-.1.11v5.65c0,.1,0,.21,0,.32a.48.48,0,0,1-.38.1H5a.53.53,0,0,1-.39-.09h0a.87.87,0,0,1,0-.32c0-1.79,0-3.57,0-5.35,0-.76-.06-1.52-.06-2.28a.77.77,0,0,1,.07-.42.9.9,0,0,1,.8,0,.83.83,0,0,1,.08.51c0,2.14,0,4.28,0,6.43,0,.1,0,.21,0,.32s.08.28.28.28c.38,0,.76,0,1.14,0s.7,0,1,0,.38,0,.38-.39V35.55A.83.83,0,0,1,8.37,35,.6.6,0,0,1,8.76,35h1.49c.45,0,.51.06.51.51,0,1.63,0,3.25,0,4.88,0,.67,0,.67.67.71s1.13,0,1.7,0,.49,0,.49-.51V34a.9.9,0,0,1,.07-.51.88.88,0,0,1,.79,0,1.49,1.49,0,0,1,.08.78c0,.4,0,.8,0,1.19A.47.47,0,0,1,14.48,35.81Z"/><path class="cls-5" d="M9.91,41.91h4.55c0,.2,0,.41,0,.61a.14.14,0,0,0,.16.16c.13,0,.27,0,.41,0s.2.06.19.2v1.06c0,.26,0,.25.25.26s.37-.07.48.05,0,.3,0,.46c0,.51,0,1,0,1.55,0,.22,0,.22-.23.22H11.67c-.24,0-.24,0-.24-.24s0-.65,0-1,0-.31-.33-.31h-.23c-.15,0-.21,0-.21-.2q0-.53,0-1c0-.27,0-.27-.27-.27H10.1c-.16,0-.2-.06-.2-.21C9.91,42.78,9.91,42.35,9.91,41.91Z"/><path class="cls-5" d="M4.58,41.91H9.13c0,1,0,1.91,0,2.86,0,.14,0,.2-.18.19H8.55c-.13,0-.17,0-.17.17v1.09c0,.26,0,.26-.28.26h-4c-.26,0-.26,0-.26-.26v-1c0-.26,0-.26.28-.27.48,0,.48,0,.48-.47C4.57,43.62,4.58,42.76,4.58,41.91Z"/><path class="cls-3" d="M3.06,36.57H1.77c-.23,0-.22,0-.24-.22s.08-.38-.06-.5-.31,0-.48,0-.22,0-.22-.21V34.49c0-.16.06-.21.21-.2h.41a.13.13,0,0,0,.14-.14v-.24c0-1.9,0-3.8,0-5.69l0,0a3.49,3.49,0,0,1,1.44,0c.17.14.14.34.14.52V32.9c0,.11,0,.22,0,.33s.09.2.23.2.25,0,.27-.2v-.32c0-1.42,0-2.83,0-4.24,0-.15-.08-.35.16-.41a.42.42,0,0,1,.08.3c0,1.65,0,3.3,0,4.95,0,.41,0,.81,0,1.22s-.07.38-.4.41-.36,0-.36.4v.7A.53.53,0,0,1,3.06,36.57Z"/><path class="cls-3" d="M14.48,35.81c0-.5,0-1,0-1.52a.42.42,0,0,1,.36-.09c.23,0,.31-.11.3-.32v-.47c0-1.58,0-3.16,0-4.73a.76.76,0,0,1,.08-.49.44.44,0,0,1,.35-.08,4.27,4.27,0,0,1,1.13.05c.18.15.14.35.14.54,0,1.62,0,3.24,0,4.86a2.43,2.43,0,0,0,0,.27c0,.32,0,.34.34.37.15,0,.34,0,.38.19a.78.78,0,0,1,0,.65c-.07.11-.21.09-.33.1-.33,0-.34,0-.34.37s0,.47,0,.7a.46.46,0,0,1-.09.36h-1.3c-.21,0-.21,0-.22-.21a2.41,2.41,0,0,1,0-.38c0-.12-.06-.17-.18-.17Z"/><path class="cls-6" d="M13.72,20.58c0-.44,0-.88,0-1.32,0-.15.06-.21.21-.2s.25,0,.38,0,.18,0,.18-.17a2.25,2.25,0,0,1,0-.26c0-.33,0-.33.31-.33a2.25,2.25,0,0,1,.26,0c.14,0,.19-.06.19-.19s0-.28,0-.41a.14.14,0,0,1,.16-.16h.44a.14.14,0,0,0,.16-.16V9.93h.61c.1,0,.15,0,.14.13v.24c0,1.39,0,2.79,0,4.19v3.43a1.34,1.34,0,0,0,0,.2c0,.13-.05.19-.17.18H16.5c-.16,0-.36-.08-.47.06s0,.3,0,.46a.22.22,0,0,0,0,.08.14.14,0,0,1-.16.16h-.41c-.14,0-.2,0-.2.19a2.71,2.71,0,0,1,0,.29c0,.28,0,.28-.3.28h-.29c-.13,0-.18.05-.18.18s0,.27,0,.41,0,.18-.17.17Z"/><path class="cls-6" d="M6.86,20.58h5.06c.2,0,.21,0,.21.22s0,.7,0,1.05c0,.08,0,.18.06.24v0c.15.24.06.51.08.77a1.48,1.48,0,0,1,0,.21c0,.63-.23.78-.86.56-.16-.24-.08-.51-.09-.77,0-.75.08-.68-.69-.68H7.38a1.63,1.63,0,0,1-.44,0l-.09-.05Z"/><path class="cls-7" d="M1.54,28.22l-.62,0c-.13,0-.17,0-.16-.17a.65.65,0,0,0,0-.14V23c0-.1,0-.14.14-.14h.38c.27,0,.24,0,.24-.26s0-.25,0-.38,0-.13.13-.12h5.2s.05,0,.05.06a3.18,3.18,0,0,1,0,1.44c-.2,0-.15-.17-.16-.28,0-.37,0-.38-.42-.38H2.79c-.38,0-.38,0-.41.36s-.07.37-.41.4-.34,0-.34.37c0,1.22,0,2.44,0,3.65,0,.16,0,.32-.09.45Z"/><path class="cls-7" d="M12.2,22.87a3.86,3.86,0,0,1,0-.76h4.95a1,1,0,0,0,.17,0c.16,0,.19.06.2.2s-.09.41,0,.53.34,0,.51,0,.2,0,.2.25c0,1.45,0,2.91,0,4.36a4.69,4.69,0,0,0,0,.53c0,.16-.06.2-.21.19h-.55l0,0a1,1,0,0,1-.05-.46V24.17c0-.41,0-.42-.4-.45a.33.33,0,0,1-.36-.36c0-.4,0-.4-.43-.4h-3.6A.62.62,0,0,1,12.2,22.87Z"/><path class="cls-6" d="M16.76,36.57c0-.44,0-.88,0-1.31,0-.15,0-.22.2-.21s.26,0,.38,0,.17,0,.18-.17c.05-.57.05-.57-.51-.59-.24,0-.25,0-.25-.28V28.58a.68.68,0,0,0-.05-.37.81.81,0,0,1,.81,0v5c0,.32,0,.32.32.32.5,0,.44-.06.44.46v1.6c0,.21,0,.22-.21.22h-.35c-.16,0-.21.06-.2.21s0,.25,0,.38-.05.18-.17.17Z"/><path class="cls-6" d="M4.53,36c0-.11-.06-.16-.17-.16H4.31c-.59,0-.49-.06-.5.47v.12c0,.12,0,.18-.17.17H3.06c0-.43,0-.85,0-1.28,0-.23,0-.23.22-.24h0c.51,0,.51,0,.51-.51v-1a.42.42,0,0,1,.33-.08c.2,0,1.45-.1,1.46-.29V31.86c0-1.07,0-2.13,0-3.19a.73.73,0,0,1,.07-.46,6.49,6.49,0,0,0-1.08,0,.59.59,0,0,1,.07.37v4.55c0,.14,0,.28-.09.39,0,.77,0,1.54,0,2.31"/><path class="cls-5" d="M13.69,48h-2c-.24,0-.24,0-.24-.24s0-.26,0-.38,0-.15.14-.14h4.27q.16,0,.15.15v.44c0,.13-.05.17-.17.17H13.69Z"/><path class="cls-5" d="M6.07,48h-2c-.23,0-.23,0-.24-.25s0-.23,0-.35.06-.17.18-.16H8.11c.27,0,.27,0,.27.27a2.8,2.8,0,0,0,0,.29c0,.16-.06.2-.21.2Z"/><path class="cls-8" d="M1.53,6.12v-2c0-.26,0-.26.26-.27s.36.08.47-.06,0-.3,0-.46,0-.23.25-.24S2.9,3.14,3,3s0-.3,0-.45,0-.25.25-.25h.93c.37,0,.35,0,.35-.36V1.72c0-.13,0-.18.17-.17h8.61c.37,0,.35,0,.35.34s0,.42.43.42h1.61c.24,0,.25,0,.25.25,0,.6.06.5-.48.51-.28,0-.28,0-.28.27v.27c0,.21,0,.22-.24.22h-.35c-.13,0-.18.06-.17.18s0,.25,0,.38-.06.21-.21.2H13.16c-.14,0-.22,0-.21.2s0,.22,0,.32,0,.24-.25.24h-.35c-.11,0-.16,0-.16.16v.41c0,.13,0,.19-.19.19H11c-.28,0-.28,0-.28.27v.23c0,.25,0,.26-.27.26H8.64c-.25,0-.25,0-.26.26,0,.5,0,.5-.49.5H7.1c-.23,0-.23,0-.24.23v.32c0,.2,0,.21-.22.21H5c-.48,0-.42,0-.42.42a.75.75,0,0,0,0,.15c0,.14,0,.19-.19.19H2.49c-.16,0-.21-.07-.2-.21s0-.23,0-.35-.06-.21-.21-.2H1.7c-.12,0-.17-.05-.17-.18V6.12Z"/><path class="cls-6" d="M7.62,11.44V12c0,.14,0,.2-.19.19a1.34,1.34,0,0,0-.2,0H2.3c0-.19,0-.37,0-.56s0-.22.2-.2H7.62Z"/><path class="cls-6" d="M12.2,11.44c-.12-.13-.06-.3-.06-.44,0-.31,0-.31-.31-.32H9.9c0-.19,0-.37,0-.55s0-.21.2-.21h2.09v.77A.8.8,0,0,1,12.2,11.44Z"/><path class="cls-6" d="M9.9,10.68c0,.19,0,.39,0,.58s-.06.19-.19.19H7.62c0-.18,0-.37,0-.55s0-.21.2-.21H9.9Z"/><path class="cls-9" d="M15.24,9.16H13.71V8.54a.12.12,0,0,1,.14-.14H15.1c.1,0,.13.06.13.15S15.23,9,15.24,9.16Z"/><path class="cls-9" d="M13.71,9.15c0,.19,0,.37,0,.56s0,.21-.21.21H12.19c0-.17,0-.33,0-.5s0-.25.25-.26Z"/><path class="cls-10" d="M16,9.92h-.59c-.12,0-.17-.05-.17-.17V9.16h.57c.14,0,.19.05.18.19S16,9.73,16,9.92Z"/><path class="cls-6" d="M4.58,18.3v-.59c0-.12,0-.17.17-.17H5.92c.14,0,.19.06.18.19s0,.26,0,.38.06.2.19.19h5c.13,0,.2-.05.19-.19s0-.25,0-.38,0-.2.18-.19h1.17c.13,0,.18.06.17.18v.58a.5.5,0,0,1-.41.08c-.19,0-.26.08-.26.27a.55.55,0,0,1-.09.41h0a.52.52,0,0,1-.38.1H5.73a.54.54,0,0,1-.39-.1h0c-.1-.1-.07-.23-.08-.36s0-.21-.08-.28S4.76,18.45,4.58,18.3Z"/><path class="cls-11" d="M5.34,19.06h6.85v.52c0,.23,0,.23-.22.24H5.34Z"/><path class="cls-6" d="M8.75,16.78h-.9c-.21,0-.22,0-.22-.21,0-.37,0-.74,0-1.11,0-.15.06-.21.21-.2h0c.52,0,.52,0,.52.5,0,.26,0,.26.26.26h1c.24,0,.25,0,.25.25,0,.6.07.5-.51.51Z"/><path class="cls-12" d="M12.2,11.44v-.75h2.05c.21,0,.21,0,.22.21s0,.36,0,.55H12.2Z"/><path class="cls-11" d="M13.7,13h.61c.12,0,.17,0,.17.17,0,.4,0,.8,0,1.19a.14.14,0,0,1-.16.16h-.61a.4.4,0,0,1-.08-.33A3.33,3.33,0,0,1,13.7,13Z"/><path class="cls-13" d="M13.7,13v1.51a6.42,6.42,0,0,1-.76,0,1.84,1.84,0,0,1-.08-.93c0-.2-.06-.41.09-.58Z"/><path class="cls-14" d="M4.57,14.49H4c-.12,0-.18-.05-.17-.17V13.13c0-.11,0-.16.15-.16h.61c.17.27.08.58.09.87S4.73,14.3,4.57,14.49Z"/><path class="cls-14" d="M13,13c0,.5,0,1,0,1.51h-.58c-.13,0-.18-.05-.18-.17V13.13a.14.14,0,0,1,.16-.16Z"/><path class="cls-13" d="M4.57,14.49c0-.5,0-1,0-1.51h.74s0,0,0,0a2.54,2.54,0,0,1,0,1.47A6.42,6.42,0,0,1,4.57,14.49Z"/><path class="cls-11" d="M5.33,14.49c0-.51,0-1,0-1.51h.61c.12,0,.17,0,.17.17v1.19a.14.14,0,0,1-.16.16Z"/><path class="cls-15" d="M14.48,11.45h.61c.09,0,.14,0,.14.13v.5c0,.1-.06.12-.15.13-.62.06-.62.06-.61-.57,0-.06,0-.13,0-.2Z"/><path class="cls-11" d="M12.19,19.06v-.58c0-.13.05-.19.19-.18H13v.58q0,.2-.18.18Z"/><path class="cls-11" d="M4.58,18.3h.7a1.94,1.94,0,0,1,0,.76H4.73c-.1,0-.15,0-.15-.16Z"/><path class="cls-16" d="M5.28,19.06V18.3c.08.05.06.14.06.21v.55Z"/><path class="cls-17" d="M4.58,33.52V30.46c0-.75,0-1.5,0-2.25a.71.71,0,0,1-.08-.45c0-.73,0-1.47,0-2.2,0-.17,0-.31-.25-.31s-.33,0-.33.32c0,.71,0,1.42,0,2.13a1.29,1.29,0,0,1,0,.44.18.18,0,0,1-.07.08,1.1,1.1,0,0,1-.8,0l-1.47,0V23.92c0-.29,0-.29.3-.29.46,0,.46,0,.46-.47V23a.13.13,0,0,1,.15-.15h4c.32,0,.32,0,.32.31v.29a.17.17,0,0,0,.06.16.56.56,0,0,1,.39-.1H11a.55.55,0,0,1,.39.09c.19,0,.38,0,.58,0s.18-.06.18-.19a5.61,5.61,0,0,1,0-.58h4.42a.13.13,0,0,1,.14.14c0,.14,0,.28,0,.41s0,.22.2.21h.32c.23,0,.23,0,.24.23v4.33l-.81,0c-.49,0-1,0-1.47,0l0,0a.88.88,0,0,1,0-.43c0-.73,0-1.46,0-2.19,0-.27-.08-.32-.34-.3s-.23.16-.23.32v2.2c0,.14,0,.29,0,.44,0,.4,0,.81,0,1.22a.47.47,0,0,1-.08.3.54.54,0,0,1-.41.08A3.53,3.53,0,0,1,13,29.74c-.12-.12-.09-.29-.1-.44,0-.71,0-1.42,0-2.13,0-.37,0-.38-.37-.41s-.37-.08-.39-.42v-.78c0-.2-.07-.3-.28-.32-.44,0-.45,0-.48-.48,0-.22-.11-.28-.31-.28s-.27.11-.27.3,0,.56,0,.85-.08.36-.37.37c-.58,0-1.15,0-1.73,0-.28,0-.35-.09-.36-.38s0-.56,0-.85-.06-.29-.27-.29-.3.07-.31.29c0,.44,0,.45-.47.47-.22,0-.28.11-.29.31a6.5,6.5,0,0,1,0,1.08.27.27,0,0,1-.07.08.58.58,0,0,1-.34.05c-.25,0-.32.11-.32.34,0,.74,0,1.48,0,2.22,0,.21.07.33.3.31a.59.59,0,0,1,.37.07.42.42,0,0,1,.09.36c0,.24.07.36.33.34a.42.42,0,0,1,.37.1.6.6,0,0,1,.07.34v2.33a.59.59,0,0,1-.08.37.48.48,0,0,1-.33.08c-.55,0-1.09,0-1.64,0a.49.49,0,0,1-.33-.08Z"/><path class="cls-18" d="M5.34,33.54H7.61a1.6,1.6,0,0,1,.78-.08h2.75a.55.55,0,0,1,.25,0,.18.18,0,0,1,.09.08,1.06,1.06,0,0,1,0,.43v6.67a.67.67,0,0,1-.1.48h-.59c-.12,0-.18,0-.17-.17V35.28c0-.22,0-.23-.24-.23h-2a1.18,1.18,0,0,1-.74.09c-.76,0-.69-.08-.69.7v4.82a.67.67,0,0,1-.1.48H5.54c-.15,0-.22,0-.2-.2v-7.4Z"/><path class="cls-19" d="M11.43,41.14v-7.6c.09-.11.21-.1.33-.1h1.63c.12,0,.24,0,.32.1v7.32c0,.28,0,.28-.26.28Z"/><path class="cls-19" d="M6.86,41.14V35.42c0-.39,0-.37.36-.37H8.39c0,1.91,0,3.82,0,5.72,0,.39,0,.37-.35.37Z"/><path class="cls-17" d="M13.71,33.54q-1.14,0-2.28,0v0a.35.35,0,0,1-.08-.24A4.23,4.23,0,0,1,11.41,32a.63.63,0,0,1,.42-.09h1.49c.16,0,.28,0,.3-.23.07-.55.33-.68.88-.44a.43.43,0,0,1,.07.25c0,.58,0,1.17,0,1.75a.3.3,0,0,1-.12.29Z"/><path class="cls-20" d="M12.94,43.43h-.56c-.12,0-.19,0-.2-.17,0-.59,0-.59.55-.59h.78c.16,0,.2.06.2.2,0,.69.1.54-.54.56Z"/><path class="cls-20" d="M6.85,42.67h.61c.11,0,.16,0,.16.15s0,.31,0,.47a.12.12,0,0,1-.14.14H6.23c-.11,0-.13-.06-.14-.15-.06-.61-.06-.61.55-.61Z"/><path class="cls-6" d="M3,28.21h.81s0,0,0,0a0,0,0,0,1,0,0c-.09.1-.05.22-.05.33V33.3c0,.21,0,.23-.21.23-.59,0-.49,0-.49-.47,0-1.49,0-3,0-4.48A.68.68,0,0,0,3,28.21Z"/><path class="cls-3" d="M11.43,23.62H6.86c0-.51,0-1,0-1.51H11.2c.22,0,.23,0,.23.23Z"/><path class="cls-7" d="M4.53,28.22l-.72,0c0-.89,0-1.79,0-2.69v-.23a.1.1,0,0,1,.11-.11H4c.59,0,.59,0,.59.55,0,.84,0,1.67,0,2.51h0Z"/><path class="cls-21" d="M6.87,29.72H6.28c-.16,0-.19-.07-.19-.21,0-.39,0-.78,0-1.17V26.89c0-.2,0-.2.22-.21h.55a.53.53,0,0,1,.09.39c0,.21.07.31.28.29s.26,0,.38,0H8c.21,0,.32-.05.32-.29s-.09-.32-.31-.3H7.59c-.24,0-.5.07-.73-.08,0-.44,0-.88,0-1.32,0-.15,0-.2.2-.21s.41.09.53,0,0-.34,0-.51,0-.2.2-.21c.57,0,.57,0,.57.54v.82c0,.12,0,.17.16.17h2c.14,0,.16-.06.16-.18V24.63c0-.23,0-.24.22-.23s.39-.08.51.05,0,.31,0,.48,0,.22.22.23h.09c.45,0,.45,0,.45.44v.79c0,.32,0,.29.31.29h.2c.25,0,.25,0,.26.27v2.77l0,0a1,1,0,0,1-.72,0,.57.57,0,0,1-.08-.42c0-.23-.1-.28-.31-.28s-.29.06-.29.27a.57.57,0,0,1-.07.42,1.18,1.18,0,0,1-.72.05l-.08-.06a.7.7,0,0,1-.05-.4c0-.2-.07-.29-.27-.28a1,1,0,0,1-.38,0L9.87,29a.81.81,0,0,1,0-.41c0-.2-.1-.26-.29-.26s-.32,0-.31.27a1,1,0,0,1,0,.38.12.12,0,0,1-.06.06.67.67,0,0,1-.37.05c-.22,0-.31.08-.29.3a.84.84,0,0,1,0,.35.16.16,0,0,1-.07.07,1.38,1.38,0,0,1-.7,0s0,0-.07-.06a.9.9,0,0,1,0-.43c0-.22-.13-.24-.3-.24s-.3,0-.3.25a.79.79,0,0,1,0,.4Z"/><path class="cls-21" d="M8.39,33.52a5.08,5.08,0,0,1-.78,0c0-.91,0-1.81,0-2.72,0-.11,0-.21,0-.32l0,0A.78.78,0,0,1,8,30.4c.19,0,.28-.08.27-.27a.55.55,0,0,1,.09-.41h0a.57.57,0,0,1,.42-.09c.18,0,.26-.07.26-.26A.55.55,0,0,1,9.15,29h0a.76.76,0,0,1,.77,0h0a.5.5,0,0,1,.08.41c0,.19.08.27.27.26a.55.55,0,0,1,.41.09h0a.56.56,0,0,1,.09.42c0,.18.07.26.26.26a.69.69,0,0,1,.42.07,1,1,0,0,1,0,.75.14.14,0,0,1-.08.07,2.76,2.76,0,0,1-.81,0H8.85c-.34,0-.37,0-.37.36v1.43A.53.53,0,0,1,8.39,33.52Z"/><path class="cls-21" d="M14.45,29.73a12.85,12.85,0,0,1,0,1.52c-.19,0-.38,0-.58,0s-.17.05-.16.17v.38c0,.2,0,.21-.21.21H11.43a.79.79,0,0,1,0-.76h0c.22-.16.47-.09.71-.1.82,0,.71.1.73-.73,0-.23-.07-.48.09-.7h1.49Z"/><path class="cls-7" d="M15.24,28.19h-.76V25.4c0-.24,0-.25.24-.25.61,0,.51-.07.52.51Z"/><path class="cls-22" d="M7.63,30.48H7c-.1,0-.14,0-.14-.14s0-.42,0-.63h0a.76.76,0,0,1,.77,0h0a.74.74,0,0,1,0,.76Z"/><path class="cls-23" d="M11.42,31.25v2.27q-1.51,0-3,0c0-.68,0-1.36,0-2,0-.23,0-.23.23-.23Z"/><path class="cls-24" d="M13,29.72c0,.43,0,.85,0,1.28,0,.25,0,.25-.24.25H11.43v-.77l0,0a.78.78,0,0,1,.4-.05c.17,0,.24-.07.24-.24a.77.77,0,0,1,.05-.4l0,0Z"/><path class="cls-25" d="M7.62,30.48v-.76h.77c0,.17,0,.35,0,.52s0,.25-.26.25Z"/><path class="cls-25" d="M11.43,30.48H10.8c-.1,0-.14,0-.14-.14s0-.42,0-.63h.76l0,0a.9.9,0,0,1,0,.72Z"/><path class="cls-25" d="M11.43,29.72c0-.19,0-.39,0-.58s0-.18.16-.18H12c.13,0,.17.06.17.18s0,.39,0,.58h0a.76.76,0,0,1-.77,0Z"/><path class="cls-25" d="M10.67,29.72H10c-.1,0-.14,0-.14-.14s0-.42,0-.63h.6c.11,0,.15.05.15.16S10.67,29.52,10.67,29.72Z"/><path class="cls-25" d="M9.15,29c0,.17,0,.35,0,.52s0,.25-.26.25h-.5V29.2c0-.23,0-.23.25-.23Z"/><path class="cls-25" d="M7.63,29.72H6.86c0-.19,0-.39,0-.58S6.88,29,7,29h.43c.13,0,.17.06.17.18A5.61,5.61,0,0,0,7.63,29.72Z"/><path class="cls-25" d="M9.91,29H9.14v-.58c0-.12,0-.18.16-.18a3.23,3.23,0,0,0,.44,0c.13,0,.16.06.16.18S9.91,28.77,9.91,29Z"/><path class="cls-25" d="M10.66,26.69h.59c.12,0,.17,0,.18.17,0,.6,0,.6-.57.59h-.2A.81.81,0,0,1,10.66,26.69Z"/><path class="cls-26" d="M10.66,26.69v.74h-.61c-.11,0-.14-.05-.15-.16-.05-.61-.05-.61.56-.6Z"/><path class="cls-26" d="M6.86,26.68h.76a.68.68,0,0,1,0,.74H7c-.11,0-.15-.05-.15-.16s0-.41,0-.61Z"/><path class="cls-25" d="M7.61,27.43v-.74H8.2c.12,0,.17,0,.18.17,0,.6,0,.6-.56.59Z"/><path class="cls-22" d="M11.43,29.72h.77c0,.16,0,.33,0,.49s0,.28-.29.28h-.46Z"/></g></g></svg>