<?xml version="1.0" encoding="utf-8"?>
<!-- Generator: Adobe Illustrator 23.0.0, SVG Export Plug-In . SVG Version: 6.00 Build 0)  -->
<svg version="1.1" id="Layer_1" xmlns="http://www.w3.org/2000/svg" xmlns:xlink="http://www.w3.org/1999/xlink" x="0px" y="0px"
	 viewBox="0 0 32 42" style="enable-background:new 0 0 32 42;" xml:space="preserve">
<style type="text/css">
	.st0{fill:#FDFDFD;}
	.st1{fill:#795548;}
	.st2{fill:#FFDBCF;}
	.st3{fill:#0D47A1;}
	.st4{fill:#9E9E9E;}
	.st5{fill:#F2C1B1;}
	.st6{fill:#424242;}
	.st7{fill:#A87A6A;}
	.st8{fill:#F1C1B1;}
	.st9{fill:#F0C0B0;}
	.st10{fill:#FFFFFF;}
	.st11{fill:#7A5548;}
	.st12{fill:#02BCD4;}
	.st13{fill:#FEFFFF;}
	.st14{fill:#7B5649;}
	.st15{fill:#FEEEE8;}
	.st16{fill:#212121;}
	.st17{fill:#1979E0;}
	.st18{fill:#1565C0;}
	.st19{fill:#F9FAFA;}
	.st20{fill:#FF8F00;}
	.st21{fill:#FC8E00;}
	.st22{fill:#FFA000;}
	.st23{fill:#222121;}
	.st24{fill:#242221;}
	.st25{fill:#FEF7E0;}
</style>
<g>
	<polygon class="st0" points="10.55,39.63 10.46,41.36 14.37,41.4 14.37,40.03 	"/>
	<polygon class="st0" points="17.07,39.63 16.98,41.36 20.9,41.4 20.89,40.03 	"/>
	<g>
		<path class="st1" d="M9.15,12.19c-0.39,0-0.79,0-1.18,0.01c-0.1,0-0.14-0.03-0.13-0.13c0.01-0.13,0-0.25,0-0.38
			c0-0.1-0.03-0.16-0.14-0.15c-0.06,0.01-0.12,0-0.18,0c-0.34,0-0.34,0-0.34-0.35c0-2.18,0-4.37,0-6.55c0-0.32-0.03-0.28,0.28-0.28
			c0.37,0,0.37,0,0.37-0.37c0-0.27,0-0.54,0-0.8c0-0.09,0.03-0.14,0.13-0.13c0.12,0.01,0.23,0,0.35,0C8.44,3.07,8.51,3.04,8.5,2.9
			c-0.01-0.11,0.01-0.22,0-0.33C8.48,2.44,8.54,2.41,8.67,2.41c0.15,0,0.35,0.08,0.45-0.04c0.09-0.1,0.03-0.29,0.02-0.44
			c0-0.13,0.04-0.17,0.17-0.17c0.15,0,0.35,0.08,0.46-0.04c0.09-0.1,0.02-0.29,0.03-0.44c0.01-0.17,0.01-0.17,0.19-0.17
			c0.31,0,0.62,0,0.93,0c0.18,0,0.18,0,0.19-0.17c0.01-0.15-0.06-0.34,0.03-0.44c0.11-0.12,0.32-0.04,0.48-0.04
			c2.32,0,4.63,0,6.95,0c0.05,0,0.1,0,0.15,0c0.22,0,0.21,0,0.22,0.22c0.01,0.14-0.06,0.31,0.04,0.41c0.09,0.08,0.26,0.02,0.39,0.03
			c0.23,0,0.47,0.01,0.7,0c0.12,0,0.19,0.03,0.18,0.17c-0.01,0.11,0.01,0.22,0,0.33c-0.01,0.14,0.05,0.17,0.17,0.16
			c0.32-0.01,0.64,0,0.95,0c0.17,0,0.18,0,0.18,0.18c0,0.12,0,0.23,0,0.35c0,0.08,0.03,0.12,0.12,0.12c0.13,0,0.27,0,0.4,0
			c0.09,0,0.14,0.03,0.13,0.13c0,0.09,0,0.18,0,0.28c0,0.27-0.02,0.25,0.24,0.25c0.09,0,0.18,0.01,0.28,0
			c0.11-0.01,0.14,0.05,0.14,0.15c0,0.33,0,0.67,0,1c0,0.12,0.04,0.16,0.16,0.16c0.12-0.01,0.25,0,0.38,0
			c0.08,0,0.12,0.03,0.12,0.12c0,0.05,0,0.1,0,0.15c0,1.13,0,2.26,0,3.39c0,0.04,0,0.08,0,0.13c0.01,0.09-0.03,0.14-0.13,0.13
			c-0.1,0-0.2,0-0.3,0c-0.23,0-0.22-0.02-0.22,0.21c0,0.37,0,0.74,0,1.1c0,0.79,0,1.57,0,2.36c0,0.24,0,0.23-0.22,0.24
			c-0.14,0.01-0.32-0.07-0.4,0.04c-0.07,0.09-0.02,0.26-0.02,0.39c0,0.22,0,0.22-0.22,0.22c-0.14,0-0.28,0-0.43,0
			c-0.1-0.11-0.08-0.25-0.08-0.38c0-1,0-2,0-3.01c0-0.49-0.04-0.45-0.41-0.46c-0.03,0-0.07-0.01-0.1-0.02
			c-0.03-0.01-0.05-0.02-0.08-0.04c-0.08-0.11-0.06-0.24-0.06-0.36c0.01-0.17-0.07-0.24-0.24-0.23c-0.11,0-0.22,0.01-0.32-0.03
			c-0.03-0.01-0.05-0.03-0.06-0.06c-0.05-0.1-0.04-0.21-0.04-0.32c0.01-0.17-0.06-0.24-0.24-0.24c-0.23,0.01-0.45,0.01-0.68,0
			c-0.19-0.01-0.26,0.08-0.25,0.26c0,0.1,0.01,0.2-0.03,0.3c-0.01,0.03-0.03,0.05-0.06,0.06c-0.29,0.08-0.58,0.03-0.87,0.04
			c-0.33,0.01-0.33,0.01-0.35,0.33c0,0.07,0,0.15-0.03,0.22c-0.01,0.03-0.03,0.05-0.06,0.06C17.31,9.05,17,9,16.69,9.01
			c-0.09,0-0.18,0-0.28,0c-0.19,0.01-0.4-0.06-0.57,0.04c-0.19,0.1-0.04,0.35-0.13,0.51c-0.01,0.03-0.03,0.05-0.06,0.07
			c-0.29,0.09-0.6,0.03-0.89,0.04c-0.23,0.01-0.47,0.01-0.7,0c-0.18,0-0.28,0.06-0.27,0.26c0.01,0.1,0,0.2-0.04,0.29
			c-0.02,0.03-0.04,0.05-0.07,0.06c-0.13,0.05-0.26,0.04-0.4,0.04c-1.2,0-2.4,0-3.6,0c-0.45,0-0.45,0-0.46,0.45
			c0,0.04-0.01,0.08-0.01,0.12c0.01,0.34,0.01,0.68,0,1.02C9.23,12.01,9.24,12.11,9.15,12.19z"/>
		<path class="st2" d="M9.15,12.19c0-0.43,0-0.86,0.01-1.3c0.12-0.1,0.27-0.08,0.41-0.08c1.21,0,2.42,0,3.63,0
			c0.39,0,0.39,0,0.45-0.39c0.01-0.07,0.03-0.13,0.07-0.19l0,0c0.11-0.08,0.23-0.07,0.36-0.07c0.42,0,0.83-0.01,1.24,0
			c0.2,0,0.3-0.07,0.28-0.27c-0.01-0.11,0-0.22,0.07-0.31l0,0c0.09-0.07,0.2-0.07,0.31-0.07c0.42,0,0.85,0,1.27,0
			c0.34,0,0.39,0.05,0.4,0.38c0,0.08,0,0.17,0.08,0.23c0.12,0.06,0.25,0.04,0.37,0.04c0.39,0,0.78,0,1.17,0
			c0.1,0,0.2-0.01,0.29,0.05c0.13,0.1,0.11,0.24,0.1,0.37c-0.01,0.19,0.09,0.24,0.27,0.24c0.16,0,0.25-0.05,0.25-0.23
			c0-0.18-0.04-0.29-0.25-0.28c-0.12,0-0.25,0.02-0.35-0.09c-0.06-0.08-0.05-0.17-0.06-0.26c-0.02-0.27-0.03-0.29-0.31-0.29
			c-0.42,0-0.83,0-1.25,0c-0.11,0-0.24,0.01-0.33-0.07c-0.09-0.22-0.1-0.44,0.01-0.66l0,0c0.14-0.1,0.3-0.07,0.46-0.07
			c0.11,0,0.22,0,0.32,0c0.41,0,0.41,0,0.46-0.4c0.01-0.07,0.03-0.13,0.07-0.18l0,0c0.27-0.14,0.55-0.06,0.83-0.07
			c0.16-0.01,0.33-0.04,0.48,0.08l0,0c0.09,0.1,0.08,0.23,0.07,0.35c0,0.16,0.07,0.22,0.22,0.22c0.12,0,0.25-0.02,0.35,0.07l0,0
			c0.09,0.1,0.08,0.22,0.08,0.33c0,1.95,0,3.89,0,5.84c0,0.37-0.04,0.41-0.39,0.43c-0.2,0.01-0.25,0.1-0.26,0.28
			c-0.02,0.32-0.05,0.36-0.37,0.37c-0.2,0.01-0.28,0.09-0.28,0.29c-0.01,0.32-0.05,0.35-0.38,0.37c-0.21,0.01-0.28,0.09-0.27,0.29
			c0.01,0.21,0,0.42,0,0.63c0,0.11,0,0.22-0.08,0.31c-0.35,0-0.7,0-1.05,0c-0.25,0-0.26,0-0.26,0.27c0,0.34,0,0.68,0,1.03
			c-0.15-0.01-0.12-0.13-0.13-0.22c-0.02-0.22,0-0.45-0.01-0.68c-0.01-0.29-0.03-0.31-0.32-0.31c-1.11,0-2.22,0-3.33,0
			c-0.17,0-0.33,0-0.5,0c-0.1,0-0.2-0.01-0.28-0.08c-0.37,0-0.74,0-1.11,0c-0.18,0-0.18-0.01-0.19-0.18c0-0.16,0-0.31,0-0.47
			c0.13-0.11,0.29-0.08,0.43-0.08c1.61,0,3.22,0,4.84,0c0.08,0,0.17,0,0.25,0c0.18,0.01,0.28-0.07,0.27-0.26
			c0-0.08,0-0.17,0.03-0.25c0.01-0.03,0.03-0.05,0.05-0.08c0.11-0.07,0.24-0.06,0.36-0.06c0.16,0,0.23-0.07,0.22-0.23
			c0-0.12,0-0.25,0-0.38c-0.02-0.55-0.02-0.55-0.57-0.55c-0.07,0-0.13,0-0.2,0c-0.35,0-0.36,0-0.39,0.35
			c-0.02,0.21-0.12,0.29-0.32,0.3c-0.43,0.01-0.87,0-1.3,0c-0.88,0-1.76,0-2.64,0c-0.4,0-0.43-0.02-0.46-0.41
			c-0.01-0.17-0.08-0.24-0.25-0.24c-0.2,0-0.4,0-0.6,0c-0.27,0.01-0.29,0.03-0.3,0.31c0,0.08,0,0.15-0.01,0.23c0,0.03,0,0.07,0,0.1
			c0,0.5,0,0.5,0.49,0.53c0.03,0.01,0.06,0.02,0.08,0.03c0.02,0.02,0.04,0.04,0.05,0.07c0.03,0.21,0.08,0.41-0.04,0.61
			c-0.38,0-0.75,0-1.13,0c-0.13,0-0.19-0.04-0.18-0.17c0-0.04,0-0.08,0-0.13c0-0.39,0.04-0.35-0.34-0.36c-0.05,0-0.1,0-0.15,0
			c-0.12,0.01-0.16-0.05-0.16-0.17c0-0.12,0-0.23,0-0.35c0-0.09-0.04-0.14-0.14-0.14c-0.13,0-0.25,0-0.38,0
			c-0.09,0-0.14-0.04-0.14-0.13c0-0.07,0-0.13,0-0.2C9.15,14.58,9.15,13.39,9.15,12.19z"/>
		<path class="st3" d="M19.6,31.12c0,0.09-0.01,0.18-0.01,0.27c0,1.55,0,3.11,0,4.66c0,0.09,0,0.18-0.01,0.28
			c-0.09,0.1-0.21,0.09-0.33,0.09c-1.08,0-2.16,0-3.24,0c-0.12,0-0.24,0.01-0.33-0.08c0-0.09-0.01-0.18-0.01-0.28
			c0-1.55,0-3.09,0-4.64c0-0.07,0-0.13,0-0.2c0-0.06-0.02-0.1-0.08-0.1c-0.16,0-0.32,0-0.48,0c-0.06,0-0.09,0.03-0.09,0.09
			c0,0.07,0,0.13,0,0.2c0,1.55,0,3.09,0,4.64c0,0.09,0,0.18-0.01,0.28c-0.09,0.1-0.21,0.09-0.33,0.09c-1.08,0-2.16,0-3.24,0
			c-0.12,0-0.24,0.01-0.33-0.08l-0.01-0.01c-0.03-0.09-0.01-0.18-0.01-0.27c0-1.53,0.02-3.06-0.01-4.59
			c-0.01-0.65-0.05-1.3-0.05-1.95c0-0.12-0.01-0.25,0.06-0.37c0.23-0.12,0.45-0.11,0.68-0.01c0.1,0.13,0.07,0.29,0.07,0.44
			c0,1.84,0,3.67,0,5.51c0,0.09,0,0.18,0,0.28c0,0.17,0.07,0.24,0.24,0.24c0.33,0,0.65-0.01,0.98,0.01c0.3-0.01,0.6,0,0.9-0.01
			c0.3,0,0.33-0.02,0.33-0.33c0-1.46,0-2.92,0-4.38c0-0.15-0.03-0.3,0.07-0.44c0.1-0.08,0.22-0.07,0.34-0.07c0.43,0,0.85,0,1.28,0
			c0.38,0,0.44,0.06,0.44,0.44c0,1.4,0,2.79,0,4.19c0,0.58,0,0.58,0.57,0.6c0.48-0.01,0.97,0,1.45-0.01c0.42,0,0.42,0,0.42-0.44
			c0-1.86,0-3.71,0-5.57c0-0.15-0.02-0.3,0.06-0.44c0.22-0.12,0.45-0.1,0.68-0.02c0.13,0.21,0.06,0.45,0.07,0.67
			c0.01,0.34,0,0.68,0,1.02C19.67,30.94,19.67,31.04,19.6,31.12z"/>
		<path class="st4" d="M15.68,36.35c1.24,0,2.48,0,3.72,0c0.06,0,0.12-0.01,0.17-0.01c0,0.18,0.01,0.35,0.01,0.53
			c0,0.09,0.04,0.14,0.13,0.13c0.12,0,0.23,0.01,0.35,0c0.13-0.01,0.17,0.05,0.17,0.18c-0.01,0.3,0,0.6,0,0.9
			c0,0.22,0,0.22,0.22,0.23c0.14,0.01,0.31-0.06,0.41,0.04c0.08,0.09,0.03,0.26,0.03,0.39c0,0.44,0,0.89,0,1.33
			c0,0.19,0,0.19-0.2,0.19c-1.17,0-2.34,0-3.51,0c-0.2,0-0.2,0-0.21-0.21c0-0.28,0-0.55,0-0.83c0-0.26,0-0.26-0.28-0.27
			c-0.07,0-0.13,0-0.2,0c-0.13,0.01-0.18-0.04-0.18-0.17c0.01-0.3,0-0.6,0-0.9c0-0.23,0-0.23-0.24-0.23c-0.08,0-0.17-0.01-0.25,0
			c-0.14,0.01-0.17-0.05-0.17-0.18C15.68,37.1,15.68,36.72,15.68,36.35z"/>
		<path class="st4" d="M11.11,36.34c1.25,0,2.5,0,3.75,0c0.05,0,0.1-0.01,0.15-0.01c0,0.82,0,1.64,0.01,2.45
			c0,0.12-0.04,0.17-0.16,0.16c-0.12-0.01-0.23,0-0.35,0c-0.11,0-0.15,0.04-0.15,0.15c0,0.31,0,0.62,0,0.93c0,0.23,0,0.23-0.24,0.23
			c-1.15,0-2.31,0-3.46,0c-0.22,0-0.22,0-0.22-0.22c0-0.28,0-0.57,0-0.85c0-0.23,0-0.23,0.24-0.23c0.41,0,0.41,0,0.41-0.41
			C11.11,37.81,11.11,37.08,11.11,36.34z"/>
		<path class="st2" d="M9.81,31.77c-0.37,0-0.73,0-1.1,0c-0.2,0-0.19-0.01-0.21-0.19c-0.01-0.15,0.07-0.33-0.05-0.43
			c-0.1-0.09-0.27-0.02-0.41-0.03c-0.18-0.01-0.19-0.01-0.19-0.18c0-0.32,0-0.63,0-0.95c0-0.13,0.05-0.18,0.18-0.17
			c0.12,0.01,0.23,0,0.35,0c0.08,0,0.12-0.04,0.12-0.12c0-0.07,0-0.13,0-0.2c0-1.63,0-3.25,0-4.88c0.01-0.01,0.02-0.03,0.03-0.04
			c0.41-0.09,0.83-0.09,1.24,0c0.14,0.12,0.11,0.29,0.11,0.44c0,1.2,0,2.41,0,3.61c0,0.09,0,0.18,0.01,0.28
			c0.01,0.13,0.08,0.17,0.2,0.17c0.12,0,0.22-0.02,0.23-0.17c0.01-0.09,0.01-0.18,0.01-0.28c0-1.21,0-2.42,0-3.64
			c0-0.12-0.07-0.3,0.14-0.35c0.07,0.07,0.07,0.17,0.07,0.26c0,1.41,0.01,2.83,0,4.24c0.01,0.35,0.01,0.7,0,1.05
			c-0.01,0.28-0.06,0.33-0.34,0.35c-0.31,0.03-0.31,0.03-0.31,0.34c0,0.2,0,0.4,0,0.6C9.88,31.59,9.88,31.69,9.81,31.77z"/>
		<path class="st2" d="M19.6,31.12c-0.02-0.44-0.02-0.87,0-1.31c0.09-0.08,0.2-0.08,0.31-0.08c0.2,0.01,0.27-0.09,0.26-0.27
			c0-0.13,0-0.27,0-0.4c0-1.35,0-2.7,0-4.06c0-0.14-0.02-0.29,0.07-0.41c0.09-0.08,0.2-0.08,0.31-0.08
			c0.32,0.01,0.65-0.05,0.96,0.05c0.16,0.12,0.13,0.3,0.13,0.46c0,1.39,0,2.78,0,4.16c0,0.08,0,0.15,0,0.23
			c0.01,0.28,0.02,0.3,0.29,0.32c0.13,0.01,0.29,0,0.33,0.17c0.04,0.19,0.07,0.39-0.05,0.56c-0.06,0.09-0.18,0.08-0.28,0.09
			c-0.28,0.02-0.29,0.03-0.3,0.31c0,0.2,0,0.4,0,0.6c0,0.11,0,0.22-0.08,0.31c-0.37,0-0.75,0-1.12,0c-0.18,0-0.18-0.01-0.19-0.18
			c0-0.11,0-0.22,0-0.32c0-0.11-0.05-0.15-0.15-0.15C19.93,31.13,19.76,31.12,19.6,31.12z"/>
		<path class="st5" d="M18.95,18.07c0-0.38,0-0.75,0-1.13c0-0.13,0.05-0.18,0.18-0.18c0.11,0.01,0.22,0,0.33,0
			c0.1,0,0.16-0.04,0.15-0.15c0-0.08,0-0.15,0-0.23c0-0.28,0-0.28,0.27-0.28c0.08,0,0.15,0,0.23,0c0.12,0.01,0.16-0.05,0.16-0.17
			c0-0.12,0-0.23,0-0.35c0-0.09,0.04-0.14,0.14-0.14c0.13,0,0.25,0,0.38,0c0.09,0,0.14-0.04,0.14-0.13c0-0.06,0-0.12,0-0.18
			c0-2.07,0-4.14,0-6.21c0.17,0,0.35,0,0.52,0c0.08,0,0.12,0.03,0.12,0.12c0,0.07,0,0.13,0,0.2c0,1.2,0,2.4,0.01,3.6
			c0,0.98,0,1.96,0,2.94c0,0.06,0,0.12,0,0.18c0.01,0.1-0.04,0.16-0.15,0.15c-0.02,0-0.05,0-0.08,0c-0.14,0.02-0.31-0.07-0.4,0.05
			c-0.08,0.1-0.02,0.26-0.03,0.39c0,0.03,0,0.05,0,0.08c0,0.1-0.04,0.14-0.14,0.13c-0.12,0-0.23,0-0.35,0
			c-0.12-0.01-0.17,0.04-0.16,0.16c0,0.08,0,0.17,0,0.25c0,0.24,0,0.24-0.25,0.24c-0.08,0-0.17,0-0.25,0
			c-0.11,0-0.15,0.05-0.15,0.15c0,0.12,0,0.23,0,0.35c0,0.1-0.04,0.15-0.15,0.15C19.28,18.07,19.11,18.07,18.95,18.07z"/>
		<path class="st5" d="M13.07,18.07c1.41,0,2.82,0,4.23,0c0.03,0,0.07,0,0.1,0c0.18,0.01,0.18,0.01,0.19,0.19c0,0.3,0,0.6,0,0.9
			c0,0.07-0.03,0.15,0.05,0.2c0,0,0,0.02,0,0.02c0.13,0.21,0.05,0.44,0.07,0.66c0.01,0.06,0.01,0.12,0.01,0.17
			c0,0.55-0.2,0.68-0.74,0.49c-0.13-0.21-0.07-0.44-0.07-0.66c-0.01-0.65,0.07-0.58-0.6-0.59c-0.93,0-1.87,0-2.8,0
			c-0.12,0-0.25,0.01-0.37-0.02c-0.03-0.01-0.06-0.03-0.08-0.05C13.06,18.95,13.06,18.51,13.07,18.07z"/>
		<path class="st6" d="M8.51,24.61c-0.17,0-0.35-0.01-0.52-0.01c-0.11,0-0.15-0.04-0.14-0.15c0-0.04,0-0.08,0-0.13
			c0-1.34,0-2.69,0-4.03c0-0.05,0-0.1,0-0.15c0-0.08,0.03-0.12,0.12-0.12c0.11,0,0.22,0,0.33,0c0.24,0,0.21,0,0.21-0.22
			c0-0.11,0-0.22,0-0.33c0-0.07,0.03-0.11,0.1-0.1c0.03,0,0.07,0,0.1,0c1.42,0,2.84,0,4.26,0c0.03,0,0.07,0,0.1,0.01c0,0,0,0,0,0
			c0.02,0.02,0.04,0.03,0.05,0.05c0.06,0.41,0.1,0.83-0.02,1.24c-0.17-0.01-0.13-0.15-0.14-0.24c-0.04-0.32-0.03-0.33-0.36-0.33
			c-1,0-2,0-3.01,0c-0.32,0-0.32,0-0.35,0.31c-0.02,0.28-0.06,0.32-0.35,0.34c-0.27,0.02-0.29,0.04-0.29,0.32c0,1.04,0,2.09,0,3.13
			c0,0.13,0.02,0.27-0.08,0.38L8.51,24.61z"/>
		<path class="st6" d="M17.64,20.03c-0.02-0.22-0.02-0.43,0-0.65c1.41,0,2.83,0,4.24,0c0.05,0,0.1,0.01,0.15,0
			c0.14-0.02,0.16,0.05,0.17,0.17c0,0.15-0.08,0.35,0.04,0.45c0.1,0.09,0.29,0.02,0.44,0.03c0.17,0.01,0.17,0.01,0.17,0.21
			c0,1.25,0,2.49,0,3.74c0,0.15-0.01,0.3,0,0.45c0.01,0.14-0.05,0.17-0.17,0.17c-0.16-0.01-0.32,0-0.48,0.01
			c-0.01-0.01-0.02-0.02-0.03-0.04c-0.06-0.13-0.04-0.26-0.04-0.39c0-1.01,0-2.02,0-3.03c0-0.36,0-0.36-0.34-0.39
			c-0.21-0.01-0.29-0.11-0.31-0.31c-0.02-0.34-0.03-0.34-0.37-0.34c-1.03,0-2.05,0-3.08,0C17.89,20.11,17.75,20.13,17.64,20.03z"/>
		<path class="st5" d="M21.56,31.77c0-0.38,0-0.75,0-1.13c0-0.13,0.05-0.18,0.17-0.18c0.11,0.01,0.22,0,0.33,0
			c0.1,0,0.15-0.04,0.16-0.14c0.04-0.49,0.04-0.49-0.44-0.51c-0.21-0.01-0.21-0.01-0.21-0.24c0-1.55,0-3.1,0-4.66
			c0-0.11,0.02-0.22-0.05-0.32c0.23-0.15,0.46-0.12,0.7-0.02c0,0,0,0.02,0,0.02c0,1.39,0,2.79,0,4.18c0,0.03,0,0.07,0,0.1
			c0,0.27,0,0.27,0.27,0.27c0.43,0,0.38-0.05,0.38,0.39c0,0.46,0,0.92,0,1.38c0,0.18-0.01,0.18-0.18,0.19c-0.1,0-0.2,0.01-0.3,0
			c-0.13-0.01-0.18,0.05-0.17,0.18c0.01,0.11,0,0.22,0,0.33c0,0.11-0.04,0.15-0.15,0.15C21.89,31.77,21.72,31.77,21.56,31.77z"/>
		<path class="st5" d="M11.07,31.26c0-0.1-0.05-0.14-0.14-0.13c-0.02,0-0.03,0-0.05,0c-0.5,0-0.41-0.05-0.42,0.4
			c0,0.03,0,0.07,0,0.1c0.01,0.1-0.04,0.15-0.15,0.15c-0.17,0-0.33,0-0.5,0c0-0.37,0-0.73,0-1.1c0-0.2,0.01-0.2,0.19-0.2
			c0.01,0,0.02,0,0.02,0c0.43-0.01,0.43-0.01,0.43-0.44c0-0.29,0-0.58,0-0.87c0.08-0.07,0.18-0.08,0.28-0.08
			c0.17,0,1.25-0.08,1.25-0.25c0-0.37,0-0.74,0-1.1c0-0.91,0-1.82,0-2.73c0-0.13-0.02-0.27,0.06-0.39c0.03-0.03-0.95-0.03-0.92,0
			c0.07,0.1,0.06,0.21,0.06,0.31c0,1.3,0,2.6,0,3.9c0,0.12,0.01,0.24-0.08,0.33c-0.03,0.66-0.01,1.32-0.01,1.98"/>
		<path class="st4" d="M18.92,41.57c-0.58,0-1.15,0-1.73,0c-0.21,0-0.21,0-0.21-0.21c0-0.11,0-0.22,0-0.33
			c0-0.08,0.04-0.12,0.12-0.12c0.04,0,0.08,0,0.13,0c1.14,0,2.27,0,3.41,0c0.04,0,0.08,0,0.13,0c0.09,0,0.14,0.04,0.14,0.13
			c0,0.13,0,0.25,0,0.38c0,0.11-0.05,0.15-0.15,0.14c-0.28,0-0.55,0-0.83,0C19.59,41.57,19.25,41.57,18.92,41.57z"/>
		<path class="st4" d="M12.39,41.57c-0.58,0-1.15,0-1.73,0c-0.2,0-0.2,0-0.21-0.21c0-0.1,0-0.2,0-0.3
			c-0.01-0.11,0.05-0.14,0.15-0.14c0.33,0,0.65,0,0.98,0c0.85,0,1.7,0,2.55,0c0.23,0,0.23,0,0.23,0.23c0,0.08-0.01,0.17,0,0.25
			c0.01,0.14-0.05,0.17-0.18,0.17C13.59,41.56,12.99,41.57,12.39,41.57z"/>
		<path class="st7" d="M8.5,5.68c0-0.58,0-1.15,0-1.73c0-0.22,0-0.22,0.22-0.23c0.14-0.01,0.31,0.07,0.4-0.05
			c0.08-0.1,0.02-0.26,0.03-0.39c0.01-0.2,0.01-0.2,0.22-0.21c0.14-0.01,0.31,0.07,0.41-0.05c0.08-0.1,0.03-0.26,0.03-0.39
			c0.01-0.21,0.01-0.21,0.21-0.21c0.27,0,0.54,0,0.8,0c0.31,0,0.29,0.02,0.29-0.31c0-0.07,0-0.13,0-0.2c0-0.11,0.05-0.15,0.15-0.15
			c0.05,0,0.1,0,0.15,0c2.41,0,4.82,0,7.22,0c0.32,0,0.3-0.02,0.3,0.3c0,0.4-0.04,0.35,0.37,0.36c0.46,0,0.92,0,1.38,0
			c0.2,0,0.21,0,0.21,0.21c0,0.52,0.05,0.43-0.41,0.44c-0.24,0-0.24,0-0.24,0.23c0,0.08,0,0.15,0,0.23
			c-0.01,0.19-0.01,0.19-0.2,0.19c-0.1,0-0.2,0-0.3,0c-0.11,0-0.15,0.05-0.15,0.15c0,0.11,0,0.22,0,0.33
			c0.01,0.13-0.04,0.18-0.17,0.18c-0.25-0.01-0.5,0-0.75,0c-0.07,0-0.13,0-0.2,0c-0.12-0.01-0.19,0.04-0.18,0.17
			c0.01,0.09,0,0.18,0,0.28c0,0.2-0.01,0.2-0.22,0.21c-0.1,0-0.2,0-0.3,0c-0.1,0-0.14,0.05-0.13,0.14c0,0.12,0,0.23,0,0.35
			c0,0.12-0.04,0.16-0.16,0.16c-0.3,0-0.6,0-0.9,0c-0.24,0-0.24,0-0.24,0.23c0,0.07,0,0.13,0,0.2c0,0.21,0,0.22-0.23,0.22
			c-0.5,0-1,0-1.51,0c-0.22,0-0.22,0-0.22,0.23c-0.01,0.43-0.01,0.43-0.42,0.43c-0.23,0-0.45,0-0.68,0c-0.2,0-0.2,0.01-0.2,0.19
			c0,0.09,0,0.18,0,0.28c-0.01,0.17-0.01,0.18-0.19,0.18c-0.47,0-0.94,0-1.4,0c-0.41,0-0.36-0.04-0.36,0.36c0,0.04,0,0.08,0,0.13
			c0.01,0.12-0.04,0.16-0.16,0.16c-0.54,0-1.09,0-1.63,0c-0.14,0-0.17-0.06-0.17-0.18c0.01-0.1,0-0.2,0-0.3
			C9.16,7.67,9.1,7.62,8.98,7.63c-0.11,0.01-0.22,0-0.33,0c-0.11,0-0.15-0.05-0.15-0.15c0-0.16,0-0.32,0-0.48
			C8.5,6.56,8.5,6.12,8.5,5.68z"/>
		<path class="st5" d="M13.72,10.24c0,0.17,0,0.33,0.01,0.5c0,0.12-0.05,0.17-0.16,0.16c-0.06,0-0.12,0-0.17,0
			c-1.41,0-2.82,0-4.23,0c0-0.16,0-0.32-0.01-0.47c-0.01-0.12,0.03-0.19,0.17-0.18c0.06,0.01,0.12,0,0.18,0c1.31,0,2.62,0,3.93,0
			C13.52,10.24,13.62,10.24,13.72,10.24z"/>
		<path class="st5" d="M17.64,10.24c-0.1-0.12-0.05-0.25-0.05-0.38c-0.01-0.26,0-0.27-0.26-0.27c-0.55,0-1.1,0-1.66-0.01
			c0-0.16,0.01-0.32,0-0.47c-0.01-0.13,0.04-0.18,0.17-0.17c0.26,0.01,0.51,0,0.77,0c0.34,0,0.68-0.01,1.02-0.01
			c0,0.22,0,0.44,0.01,0.66C17.75,9.81,17.75,10.02,17.64,10.24z"/>
		<path class="st5" d="M15.68,9.58c0,0.17,0,0.33,0.01,0.5c0,0.12-0.05,0.16-0.16,0.16c-0.29,0-0.58,0-0.87,0c-0.31,0-0.62,0-0.92,0
			c0-0.16,0.01-0.32,0-0.47c-0.01-0.13,0.04-0.18,0.17-0.17c0.26,0.01,0.51,0,0.77,0C15,9.59,15.34,9.59,15.68,9.58z"/>
		<path class="st8" d="M20.25,8.28c-0.44,0-0.87,0-1.31-0.01c0-0.17,0-0.35,0-0.52c0-0.08,0.03-0.12,0.12-0.12c0.36,0,0.72,0,1.07,0
			c0.09,0,0.11,0.05,0.11,0.13C20.24,7.94,20.24,8.11,20.25,8.28z"/>
		<path class="st8" d="M18.94,8.28c0,0.16,0.01,0.32,0,0.47c0,0.17-0.01,0.18-0.19,0.18c-0.37,0-0.75,0-1.12,0c0-0.14,0-0.28,0-0.42
			c0-0.22,0-0.22,0.21-0.22C18.21,8.28,18.57,8.28,18.94,8.28z"/>
		<path class="st9" d="M20.9,8.94c-0.17,0-0.33,0-0.5,0c-0.11,0-0.15-0.04-0.15-0.15c0-0.17,0-0.33,0-0.5c0.16,0,0.33,0,0.49,0
			c0.12,0,0.16,0.05,0.16,0.16C20.89,8.61,20.9,8.77,20.9,8.94z"/>
		<path class="st5" d="M11.11,16.11c0-0.17,0-0.33,0-0.5c0-0.1,0.04-0.15,0.15-0.15c0.33,0,0.67,0,1,0c0.12,0,0.16,0.06,0.16,0.17
			c0,0.11,0,0.22,0,0.33c-0.01,0.12,0.05,0.17,0.17,0.16c0.04,0,0.08,0,0.13,0c1.33,0,2.66,0,3.99,0c0.04,0,0.08,0,0.13,0
			c0.12,0.01,0.17-0.04,0.17-0.16c0-0.11,0-0.22,0-0.33c0-0.11,0.03-0.17,0.16-0.17c0.33,0,0.67,0,1,0c0.11,0,0.15,0.05,0.15,0.15
			c0,0.17,0,0.33,0,0.5c-0.11,0.09-0.23,0.07-0.36,0.07c-0.16,0-0.22,0.07-0.22,0.22c0,0.12,0.02,0.25-0.08,0.35l0,0
			c-0.1,0.09-0.21,0.08-0.33,0.08c-1.74,0-3.47,0-5.21,0c-0.12,0-0.24,0-0.33-0.08l0,0c-0.09-0.09-0.06-0.2-0.07-0.3
			c-0.01-0.09,0.03-0.19-0.07-0.25C11.46,16.15,11.26,16.24,11.11,16.11z"/>
		<path class="st10" d="M11.77,16.76c1.96,0,3.92,0,5.87,0c0,0.15,0,0.3,0,0.45c0,0.2-0.01,0.2-0.19,0.2c-0.02,0-0.05,0-0.08,0
			c-1.87,0-3.74,0-5.6,0c0,0,0,0,0,0C11.77,17.2,11.77,16.98,11.77,16.76z"/>
		<path class="st5" d="M14.69,14.81c-0.26,0-0.52,0-0.78,0c-0.18,0-0.19-0.01-0.19-0.18c0-0.32,0-0.63,0-0.95
			c0-0.13,0.05-0.18,0.18-0.17c0.01,0,0.02,0,0.03,0c0.44-0.01,0.44-0.01,0.45,0.42c0,0.22,0,0.23,0.22,0.23c0.29,0,0.58,0,0.88,0
			c0.2,0,0.21,0.01,0.21,0.21c0,0.52,0.06,0.43-0.44,0.44C15.06,14.81,14.88,14.81,14.69,14.81z"/>
		<path class="st11" d="M17.64,10.24c0-0.21,0-0.43,0-0.64c0.59,0,1.18,0,1.77,0c0.18,0,0.18,0,0.18,0.18
			c0,0.16,0.01,0.31,0.01,0.47l0,0C18.95,10.24,18.29,10.24,17.64,10.24z"/>
		<path class="st10" d="M18.93,11.56c0.17,0,0.35,0,0.52-0.01c0.11,0,0.15,0.05,0.15,0.15c0,0.34,0,0.68,0,1.02
			c0,0.09-0.04,0.14-0.14,0.13c-0.17,0-0.35,0-0.52,0c-0.07-0.08-0.08-0.18-0.07-0.28C18.89,12.23,18.8,11.89,18.93,11.56z"/>
		<path class="st12" d="M18.93,11.56c0,0.43,0.01,0.86,0.01,1.29c-0.22,0.02-0.43,0.01-0.65,0c-0.14-0.26-0.06-0.53-0.07-0.8
			c-0.01-0.17-0.05-0.35,0.08-0.5C18.51,11.55,18.72,11.55,18.93,11.56z"/>
		<path class="st13" d="M11.11,12.85c-0.17,0-0.33,0-0.5,0c-0.1,0-0.15-0.04-0.15-0.15c0-0.34,0-0.68,0-1.02
			c0-0.09,0.04-0.14,0.14-0.14c0.17,0,0.35,0,0.52,0.01c0.14,0.24,0.06,0.5,0.07,0.75C11.19,12.49,11.24,12.69,11.11,12.85z"/>
		<path class="st13" d="M18.3,11.55c-0.03,0.43-0.01,0.87-0.01,1.3c-0.17,0-0.33,0-0.5,0c-0.1,0-0.15-0.04-0.15-0.15
			c0-0.34,0-0.68,0-1.02c0-0.09,0.04-0.14,0.14-0.14C17.95,11.55,18.12,11.55,18.3,11.55z"/>
		<path class="st12" d="M11.11,12.85c0-0.43-0.02-0.87,0.01-1.3c0.21,0,0.42,0,0.63,0c0.01,0.01,0.03,0.02,0.04,0.03
			c0.08,0.42,0.13,0.84-0.03,1.26C11.54,12.87,11.32,12.86,11.11,12.85z"/>
		<path class="st10" d="M11.76,12.85c0-0.43-0.01-0.86-0.01-1.29c0.17,0,0.35,0,0.52-0.01c0.11,0,0.15,0.05,0.15,0.15
			c0,0.34,0,0.68,0,1.02c0,0.09-0.04,0.14-0.14,0.13C12.11,12.85,11.93,12.85,11.76,12.85z"/>
		<path class="st14" d="M19.6,10.24c0.17,0,0.35,0,0.52,0c0.08,0,0.12,0.03,0.12,0.12c0,0.14,0,0.28,0,0.42
			c0,0.09-0.05,0.11-0.13,0.11c-0.53,0.05-0.53,0.05-0.53-0.49C19.59,10.35,19.6,10.3,19.6,10.24C19.6,10.24,19.6,10.24,19.6,10.24z
			"/>
		<path class="st10" d="M17.64,16.77c0-0.16,0-0.33,0-0.49c0-0.12,0.05-0.16,0.16-0.16c0.16,0.01,0.33,0,0.49,0
			c0,0.16,0,0.33,0,0.49c0,0.12-0.05,0.16-0.16,0.16C17.96,16.76,17.8,16.77,17.64,16.77z"/>
		<path class="st10" d="M11.11,16.11c0.2,0,0.4,0,0.6,0c0.04,0.22,0.04,0.43,0,0.65c-0.16,0-0.31,0-0.47,0
			c-0.09,0-0.13-0.04-0.13-0.13C11.11,16.46,11.11,16.29,11.11,16.11z"/>
		<path class="st15" d="M11.71,16.77c0-0.22,0-0.43,0-0.65c0.07,0.04,0.05,0.12,0.05,0.18c0,0.16,0,0.31,0,0.47
			C11.75,16.77,11.73,16.77,11.71,16.77z"/>
		<path class="st16" d="M11.12,29.16c0-0.88,0-1.75-0.01-2.63c0-0.64,0-1.28,0-1.93c-0.09-0.12-0.07-0.25-0.07-0.39
			c0-0.63,0-1.25,0-1.88c0-0.15-0.02-0.26-0.21-0.27c-0.22-0.01-0.28,0.04-0.28,0.27c-0.01,0.61,0,1.22,0,1.83
			c0,0.12,0.01,0.25-0.03,0.37c-0.01,0.03-0.03,0.05-0.06,0.07c-0.23,0.08-0.46,0.09-0.69-0.01C9.34,24.6,8.92,24.6,8.5,24.59
			c0-1.22,0-2.44,0-3.66c0-0.24,0-0.24,0.25-0.25c0.4,0,0.4,0,0.4-0.4c0-0.04,0-0.08,0-0.13c0-0.08,0.04-0.12,0.12-0.12
			c0.05,0,0.1,0,0.15,0c1.1,0,2.21,0,3.31,0c0.28,0,0.28,0,0.28,0.27c0,0.08,0,0.17,0,0.25c0,0.05,0,0.1,0.05,0.13
			c0.1-0.09,0.22-0.08,0.33-0.08c1.08,0,2.16,0,3.25,0c0.12,0,0.24-0.01,0.33,0.07c0.17,0,0.33,0,0.5,0.01
			c0.12,0.01,0.16-0.05,0.15-0.16c0-0.17,0.01-0.33,0.01-0.5c1.2,0,2.41,0,3.61,0c0.06,0,0.12,0,0.18,0c0.08,0,0.12,0.04,0.12,0.12
			c0,0.12,0.01,0.23,0,0.35c-0.01,0.13,0.04,0.19,0.17,0.18c0.09-0.01,0.18,0,0.28,0c0.2,0,0.2,0.01,0.21,0.19c0,0.03,0,0.07,0,0.1
			c0,1.2,0,2.41,0,3.61c-0.23,0.01-0.47,0.01-0.7,0.02c-0.42-0.01-0.84-0.01-1.26,0c-0.01-0.01-0.02-0.02-0.03-0.03
			c-0.06-0.12-0.05-0.24-0.05-0.37c0-0.63,0-1.25,0-1.88c0-0.23-0.07-0.27-0.29-0.26c-0.19,0.01-0.2,0.14-0.2,0.28
			c0,0.63,0,1.25,0,1.88c0,0.13,0,0.25,0,0.38c0.01,0.35,0.01,0.7,0,1.05c0,0.09-0.01,0.18-0.06,0.26
			c-0.11,0.08-0.23,0.08-0.36,0.07c-0.32-0.02-0.64,0.06-0.95-0.06c-0.11-0.11-0.08-0.25-0.09-0.38c0-0.61,0-1.22,0-1.83
			c0-0.31-0.01-0.32-0.32-0.35c-0.28-0.02-0.32-0.07-0.33-0.36c-0.01-0.23,0-0.45,0-0.68c0-0.17-0.06-0.26-0.24-0.27
			c-0.37-0.03-0.38-0.03-0.41-0.41c-0.01-0.19-0.1-0.24-0.27-0.24c-0.18,0-0.23,0.1-0.23,0.25c0,0.24,0.01,0.48,0,0.73
			c-0.01,0.25-0.07,0.32-0.31,0.32c-0.49,0.01-0.99,0.01-1.48,0c-0.24-0.01-0.3-0.07-0.31-0.32c-0.01-0.24,0-0.48,0-0.73
			c0-0.16-0.06-0.25-0.23-0.25c-0.17,0-0.26,0.06-0.27,0.24c-0.02,0.38-0.03,0.39-0.41,0.41c-0.19,0.01-0.24,0.09-0.25,0.27
			c-0.01,0.31,0.04,0.62-0.03,0.92c-0.01,0.03-0.03,0.05-0.06,0.07c-0.09,0.05-0.19,0.05-0.29,0.05c-0.21-0.01-0.27,0.09-0.27,0.29
			c0.01,0.63,0,1.27,0,1.9c0,0.19,0.06,0.28,0.26,0.27c0.11-0.01,0.22-0.01,0.31,0.06c0.08,0.09,0.08,0.2,0.08,0.3
			c-0.01,0.21,0.06,0.31,0.28,0.29c0.11-0.01,0.23-0.01,0.32,0.09c0.05,0.09,0.05,0.19,0.05,0.29c0,0.67,0,1.33,0,2
			c0,0.11,0,0.22-0.07,0.31c-0.08,0.07-0.19,0.07-0.29,0.07c-0.47,0-0.93,0-1.4,0c-0.1,0-0.2,0-0.28-0.07
			C11.55,29.17,11.33,29.16,11.12,29.16z"/>
		<path class="st17" d="M11.77,29.17c0.56,0,1.11,0,1.67-0.01c0.09,0,0.18,0,0.27-0.01c0.21-0.12,0.44-0.06,0.67-0.07
			c0.78-0.01,1.57,0,2.35,0c0.08,0,0.15,0.01,0.22,0.04c0.03,0.02,0.05,0.04,0.07,0.07c0.05,0.12,0.04,0.25,0.04,0.37
			c0,1.91,0,3.81,0,5.72c0,0.14,0.02,0.29-0.08,0.41c-0.17,0-0.33,0-0.5,0c-0.1,0-0.16-0.04-0.15-0.15c0-0.07,0-0.13,0-0.2
			c0-1.5,0-3,0-4.5c0-0.06,0-0.12,0-0.18c-0.01-0.19-0.01-0.19-0.2-0.19c-0.58,0-1.17,0-1.75,0c-0.2,0.13-0.42,0.07-0.63,0.08
			c-0.64,0.01-0.59-0.07-0.59,0.6c0,1.38,0,2.76,0,4.14c0,0.14,0.02,0.29-0.08,0.41c-0.38,0-0.75,0-1.13,0.01
			c-0.13,0-0.19-0.04-0.18-0.17c0-0.02,0-0.05,0-0.08c0-2.06,0-4.11,0-6.17C11.76,29.24,11.77,29.2,11.77,29.17z"/>
		<path class="st18" d="M16.98,35.69c0-2.05,0-4.11,0-6.16c0-0.12,0-0.23,0-0.35c0.07-0.09,0.18-0.09,0.28-0.09
			c0.47-0.01,0.93-0.01,1.4,0c0.1,0,0.2,0,0.28,0.09c0,2.09,0,4.18,0,6.27c0,0.24,0,0.24-0.23,0.24
			C18.14,35.69,17.56,35.69,16.98,35.69z"/>
		<path class="st18" d="M13.07,35.69c0-1.63,0-3.27,0-4.9c0-0.33-0.03-0.32,0.31-0.32c0.33,0,0.67,0,1,0c0,1.63,0,3.27,0,4.9
			c0,0.33,0.03,0.32-0.31,0.32C13.73,35.69,13.4,35.69,13.07,35.69z"/>
		<path class="st16" d="M18.94,29.17c-0.65-0.01-1.3-0.02-1.95,0c0,0-0.01-0.02-0.01-0.02c-0.06-0.06-0.07-0.13-0.07-0.21
			c0.02-0.37-0.07-0.74,0.06-1.1c0.11-0.09,0.24-0.07,0.36-0.07c0.43,0,0.85,0,1.28,0c0.14,0,0.24-0.02,0.26-0.19
			c0.06-0.47,0.29-0.58,0.75-0.38c0.05,0.06,0.06,0.14,0.06,0.21c0.01,0.5,0.01,1,0,1.51c0,0.09,0,0.19-0.1,0.24
			C19.36,29.17,19.15,29.17,18.94,29.17z"/>
		<path class="st19" d="M18.28,37.65c-0.16,0-0.32,0-0.47,0c-0.11,0-0.16-0.02-0.17-0.15C17.6,37,17.6,37,18.1,37
			c0.22,0,0.45,0.01,0.67,0c0.13,0,0.17,0.05,0.17,0.18c-0.01,0.59,0.08,0.46-0.46,0.48C18.41,37.65,18.34,37.65,18.28,37.65z"/>
		<path class="st19" d="M13.06,37c0.17,0,0.35,0,0.52,0c0.09,0,0.14,0.03,0.14,0.13c0,0.13,0,0.27,0,0.4c0,0.08-0.04,0.12-0.12,0.12
			c-0.36,0-0.72,0-1.07,0c-0.09,0-0.1-0.05-0.11-0.13C12.36,37,12.36,37,12.88,37C12.94,37,13,37,13.06,37
			C13.06,37,13.06,37,13.06,37z"/>
		<path class="st5" d="M9.76,24.61c0.23,0,0.46,0,0.69,0c0.01,0.01,0.01,0.02,0.01,0.03c0,0.01-0.01,0.01-0.01,0.01
			c-0.07,0.09-0.04,0.19-0.04,0.29c0,1.29,0,2.57,0,3.86c0,0.06,0,0.12,0,0.18c-0.01,0.18-0.01,0.19-0.18,0.19
			c-0.5,0-0.42,0.05-0.42-0.4c0-1.28,0-2.56,0-3.84C9.81,24.82,9.82,24.71,9.76,24.61z"/>
		<path class="st2" d="M16.98,20.68c-0.33,0-0.67,0.01-1,0.01c-0.97,0-1.94,0-2.91,0c-0.01-0.43-0.01-0.86-0.02-1.29
			c0.6,0,1.2-0.01,1.8-0.01c0.64,0,1.28,0,1.93,0c0.19,0,0.2,0.01,0.2,0.2C16.99,19.94,16.98,20.31,16.98,20.68z"/>
		<path class="st6" d="M11.07,24.61c-0.2-0.01-0.41-0.01-0.61-0.02c0-0.77,0-1.54,0-2.3c0-0.07,0-0.13,0-0.2
			c0-0.06,0.03-0.09,0.09-0.1c0.02,0,0.03,0,0.05,0c0.51-0.05,0.51-0.05,0.51,0.47c0,0.72,0,1.43,0,2.15c0,0-0.02,0-0.02,0
			S11.07,24.61,11.07,24.61z"/>
		<path class="st20" d="M13.07,25.9c-0.17,0-0.33,0-0.5,0.01c-0.14,0.01-0.17-0.06-0.16-0.18c0.01-0.33,0-0.67,0-1
			c0-0.42,0-0.84,0-1.25c0-0.17,0.01-0.18,0.18-0.18c0.16,0,0.32-0.01,0.48-0.01c0.09,0.1,0.08,0.22,0.07,0.33
			c-0.01,0.18,0.06,0.26,0.25,0.25c0.11-0.01,0.22-0.01,0.32,0c0.11,0,0.21-0.01,0.32,0c0.18,0.01,0.27-0.04,0.27-0.25
			c0-0.19-0.07-0.27-0.26-0.26c-0.11,0.01-0.23,0-0.35,0c-0.21-0.01-0.43,0.06-0.63-0.07c0-0.38,0-0.75-0.01-1.13
			c0-0.13,0.04-0.18,0.17-0.18c0.15,0,0.35,0.08,0.45-0.04c0.09-0.1,0.03-0.29,0.03-0.44c0-0.13,0.04-0.17,0.17-0.17
			c0.48-0.01,0.48-0.02,0.48,0.46c0,0.23,0,0.47,0,0.7c0,0.11,0.03,0.15,0.14,0.15c0.56,0,1.12,0,1.68,0c0.12,0,0.14-0.05,0.14-0.15
			c0-0.32,0-0.63,0-0.95c0-0.2,0-0.2,0.19-0.2c0.15,0,0.33-0.07,0.43,0.04c0.09,0.1,0.02,0.27,0.03,0.41
			c0.01,0.19,0.01,0.19,0.19,0.2c0.03,0,0.05,0,0.08,0c0.39,0,0.39,0,0.39,0.38c0,0.23,0,0.45,0,0.68c0,0.28-0.02,0.25,0.26,0.25
			c0.06,0,0.12,0,0.18,0c0.21,0,0.21,0,0.21,0.23c0,0.79,0,1.59,0.01,2.38c-0.01,0.01-0.02,0.02-0.03,0.03
			c-0.21,0.06-0.41,0.07-0.62-0.02c-0.09-0.1-0.08-0.24-0.07-0.36c0.01-0.19-0.09-0.24-0.26-0.24c-0.16,0-0.25,0.05-0.25,0.23
			c0,0.12,0.02,0.25-0.07,0.36c-0.2,0.11-0.41,0.07-0.61,0.04c-0.03-0.01-0.05-0.03-0.07-0.05c-0.06-0.11-0.05-0.23-0.05-0.34
			c0.01-0.17-0.06-0.25-0.23-0.24c-0.11,0.01-0.22,0.01-0.32-0.03c-0.02-0.01-0.04-0.03-0.06-0.05c-0.05-0.11-0.04-0.23-0.04-0.34
			c0.01-0.18-0.08-0.23-0.25-0.23c-0.17,0-0.28,0.04-0.27,0.23c0,0.11,0.01,0.22-0.03,0.32c-0.01,0.02-0.03,0.04-0.05,0.06
			c-0.1,0.05-0.21,0.05-0.31,0.04c-0.19-0.01-0.27,0.07-0.26,0.26c0.01,0.1,0.01,0.2-0.03,0.29c-0.01,0.03-0.03,0.05-0.06,0.06
			c-0.2,0.06-0.4,0.05-0.6,0.01c-0.03-0.01-0.05-0.03-0.06-0.05c-0.06-0.12-0.04-0.24-0.04-0.36c0-0.19-0.11-0.21-0.26-0.21
			c-0.15,0-0.26,0.03-0.26,0.21c0,0.11,0.02,0.23-0.04,0.34C13.09,25.88,13.08,25.89,13.07,25.9z"/>
		<path class="st20" d="M14.38,29.16c-0.22,0.01-0.44,0.02-0.66,0c0-0.78,0-1.55,0-2.33c0-0.09,0.01-0.18,0.01-0.27
			c0.01-0.01,0.02-0.02,0.03-0.03c0.1-0.05,0.21-0.04,0.31-0.04c0.16,0,0.24-0.06,0.24-0.23c0-0.12-0.02-0.25,0.07-0.35l0,0
			c0.1-0.09,0.23-0.08,0.36-0.08c0.16,0,0.23-0.07,0.22-0.22c0-0.12-0.02-0.25,0.08-0.36l0,0c0.22-0.12,0.44-0.12,0.66,0l0,0
			c0.09,0.1,0.08,0.23,0.08,0.36c0,0.16,0.07,0.23,0.22,0.22c0.12,0,0.25-0.02,0.36,0.08l0,0c0.09,0.1,0.08,0.23,0.07,0.36
			c0,0.16,0.07,0.23,0.22,0.22c0.12,0,0.25-0.02,0.36,0.07c0.11,0.21,0.08,0.42,0.03,0.64c-0.02,0.03-0.04,0.05-0.07,0.06
			c-0.23,0.07-0.46,0.03-0.7,0.04c-0.49,0.01-0.99,0-1.48,0c-0.3,0-0.32,0.02-0.32,0.31c0,0.41,0,0.82,0,1.23
			C14.45,28.94,14.47,29.06,14.38,29.16z"/>
		<path class="st20" d="M19.58,25.91c0.02,0.44,0.02,0.87,0,1.31c-0.17,0-0.33,0-0.5,0c-0.11,0-0.15,0.04-0.14,0.15
			c0,0.11,0,0.22,0,0.32c0,0.18-0.01,0.18-0.18,0.18c-0.47,0-0.93,0-1.4,0c-0.12,0-0.25,0-0.37,0c-0.12-0.22-0.11-0.43-0.01-0.65
			l0.01-0.01c0.19-0.13,0.4-0.07,0.6-0.08c0.71-0.02,0.61,0.08,0.63-0.63c0-0.2-0.06-0.42,0.08-0.6l0,0
			C18.72,25.91,19.15,25.91,19.58,25.91z"/>
		<path class="st6" d="M20.25,24.59c-0.22,0-0.43,0-0.65,0.01c0-0.8,0-1.6,0-2.4c0-0.21,0-0.21,0.21-0.21
			c0.52,0,0.44-0.06,0.44,0.43C20.25,23.14,20.25,23.87,20.25,24.59z"/>
		<path class="st21" d="M13.73,26.55c-0.18,0-0.36,0-0.54,0.01c-0.08,0-0.12-0.03-0.12-0.12c0.01-0.18,0.01-0.36,0.01-0.54
			c0,0,0,0,0,0c0.22-0.12,0.44-0.12,0.66,0l0,0C13.84,26.12,13.84,26.34,13.73,26.55C13.72,26.56,13.73,26.55,13.73,26.55z"/>
		<path class="st22" d="M16.98,27.22c0,0.22,0.01,0.43,0.01,0.65c0,0.43-0.01,0.86-0.01,1.29c-0.87,0.02-1.74,0.02-2.6,0
			c0-0.58,0-1.17,0-1.75c0-0.19,0.01-0.2,0.2-0.2C15.38,27.21,16.18,27.21,16.98,27.22z"/>
		<path class="st23" d="M18.29,25.9c0,0.37-0.01,0.73-0.01,1.1c0,0.21,0,0.21-0.2,0.21c-0.37,0-0.73,0-1.1,0c0-0.22,0-0.44,0-0.66
			c0.01-0.01,0.02-0.02,0.03-0.03c0.11-0.05,0.23-0.04,0.34-0.04c0.15,0,0.21-0.06,0.21-0.21c0-0.12-0.02-0.23,0.04-0.34
			c0.01-0.01,0.02-0.02,0.03-0.03C17.86,25.9,18.07,25.9,18.29,25.9z"/>
		<path class="st24" d="M13.72,26.56c0-0.22,0-0.44,0-0.66c0.22,0,0.44,0,0.66,0c0,0.15-0.01,0.3-0.01,0.45c0,0.21,0,0.21-0.22,0.21
			C14,26.56,13.86,26.56,13.72,26.56z"/>
		<path class="st24" d="M16.99,26.55c-0.18,0-0.36,0-0.54,0.01c-0.08,0-0.12-0.03-0.12-0.12c0-0.18,0-0.36,0.01-0.54
			c0.22,0,0.44,0,0.66,0c0.01,0.01,0.02,0.02,0.03,0.03C17.07,26.15,17.11,26.36,16.99,26.55L16.99,26.55z"/>
		<path class="st24" d="M16.99,25.9c0-0.17,0-0.33-0.01-0.5c0-0.1,0.03-0.16,0.14-0.15c0.12,0.01,0.25,0.01,0.37,0
			c0.11-0.01,0.14,0.05,0.14,0.15c0,0.17,0,0.33,0,0.5l0,0C17.42,26.02,17.2,26.02,16.99,25.9L16.99,25.9z"/>
		<path class="st24" d="M16.34,25.9c-0.18,0-0.36,0-0.54,0c-0.08,0-0.12-0.03-0.12-0.12c0-0.18,0-0.36,0.01-0.54
			c0.17,0,0.34,0.01,0.52,0.01c0.09,0,0.13,0.04,0.13,0.13C16.33,25.56,16.33,25.73,16.34,25.9z"/>
		<path class="st24" d="M15.03,25.25c0,0.15-0.01,0.3-0.01,0.45c0,0.21,0,0.21-0.22,0.21c-0.14,0-0.28,0-0.42,0
			c0-0.15-0.01-0.3-0.01-0.45c0-0.2,0-0.2,0.21-0.2C14.73,25.25,14.88,25.25,15.03,25.25z"/>
		<path class="st24" d="M13.73,25.9c-0.22,0-0.44,0-0.66,0c0-0.17,0-0.33-0.01-0.5c0-0.1,0.03-0.16,0.14-0.15
			c0.12,0.01,0.25,0.01,0.37,0c0.11-0.01,0.14,0.05,0.14,0.15C13.71,25.57,13.72,25.74,13.73,25.9z"/>
		<path class="st24" d="M15.68,25.25c-0.22,0-0.44,0-0.66,0c0-0.17,0-0.33-0.01-0.5c0-0.1,0.03-0.16,0.14-0.15
			c0.12,0.01,0.25,0.01,0.37,0c0.11-0.01,0.14,0.05,0.14,0.15C15.67,24.92,15.68,25.09,15.68,25.25z"/>
		<path class="st24" d="M16.33,23.3c0.17,0,0.33,0,0.5-0.01c0.1,0,0.14,0.03,0.15,0.14c0.03,0.52,0.04,0.52-0.48,0.51
			c-0.06,0-0.12-0.01-0.17-0.01C16.23,23.73,16.22,23.52,16.33,23.3z"/>
		<path class="st25" d="M16.33,23.3c0,0.21,0,0.42-0.01,0.63c-0.17,0-0.35,0-0.52,0.01c-0.1,0-0.12-0.04-0.13-0.13
			c-0.04-0.53-0.04-0.53,0.48-0.52C16.21,23.29,16.27,23.3,16.33,23.3z"/>
		<path class="st25" d="M13.07,23.29c0.22,0,0.43,0.01,0.65,0.01c0.12,0.21,0.13,0.42-0.01,0.63c-0.17,0-0.35,0-0.52,0.01
			c-0.1,0-0.13-0.04-0.13-0.13C13.07,23.64,13.07,23.46,13.07,23.29C13.07,23.29,13.07,23.29,13.07,23.29z"/>
		<path class="st24" d="M13.71,23.94c0-0.21,0-0.42,0.01-0.63c0.17,0,0.33,0,0.5-0.01c0.1,0,0.14,0.03,0.15,0.14
			c0.03,0.52,0.04,0.52-0.48,0.51C13.83,23.95,13.77,23.94,13.71,23.94z"/>
		<path class="st21" d="M16.98,25.9c0.22,0,0.44,0,0.66,0c0,0.14-0.01,0.28-0.01,0.42c0,0.24,0,0.24-0.25,0.24c-0.13,0-0.27,0-0.4,0
			C16.98,26.34,16.98,26.12,16.98,25.9z"/>
	</g>
</g>
</svg>
